<svg xmlns="http://www.w3.org/2000/svg" xmlns:xlink="http://www.w3.org/1999/xlink" width="187" zoomAndPan="magnify" viewBox="0 0 140.25 230.999993" height="308" preserveAspectRatio="xMidYMid meet" version="1.0"><defs><clipPath id="4061069465"><path d="M 52 175 L 102 175 L 102 229.640625 L 52 229.640625 Z M 52 175 " clip-rule="nonzero"/></clipPath><clipPath id="73b6330de5"><path d="M 49.671875 126 L 58.4375 126 L 58.4375 135.128906 L 49.671875 135.128906 Z M 49.671875 126 " clip-rule="nonzero"/></clipPath><clipPath id="9d8e302863"><path d="M 58.414062 129.152344 C 58.1875 132.359375 56.921875 134.074219 55.949219 134.597656 C 55.28125 134.972656 54.609375 135.121094 53.863281 134.972656 C 52.816406 134.820312 50.953125 133.851562 50.28125 132.808594 C 49.683594 131.761719 49.757812 129.75 50.058594 128.703125 C 50.28125 127.957031 50.730469 127.4375 51.398438 126.988281 C 52.296875 126.464844 54.382812 126.019531 55.503906 126.242188 C 56.25 126.390625 57.292969 127.363281 57.292969 127.363281 " clip-rule="nonzero"/></clipPath></defs><path fill="#000000" d="M 38.957031 17.394531 C 48.164062 6.90625 58.644531 2.195312 69.085938 1.597656 C 84.519531 0.710938 100.039062 8.972656 111.414062 21.683594 C 130.339844 42.828125 137.539062 75.902344 115.0625 97.6875 C 102.425781 109.9375 81.496094 116.710938 62.46875 115.003906 C 49.496094 113.84375 37.441406 108.765625 29.320312 99.09375 C 21.171875 89.390625 19.410156 74.179688 18.75 62.039062 C 18.269531 53.082031 19.039062 43.925781 23.101562 35.792969 C 26.777344 28.417969 32.480469 22.445312 38.957031 17.394531 Z M 59.378906 11.203125 C 59.25 12.324219 58.609375 13.371094 57.554688 13.972656 C 46.765625 20.125 35.398438 27.59375 29.679688 39.054688 C 26.1875 46.050781 25.675781 53.945312 26.089844 61.644531 C 26.667969 72.332031 27.785156 85.847656 34.953125 94.386719 C 43.605469 104.695312 57.621094 108.59375 71.699219 107.851562 C 86.058594 107.097656 100.578125 101.507812 109.941406 92.433594 C 129.433594 73.539062 122.347656 44.902344 105.929688 26.5625 C 96.105469 15.582031 82.839844 8.148438 69.511719 8.914062 C 66.109375 9.109375 62.710938 9.851562 59.378906 11.203125 Z M 59.378906 11.203125 " fill-opacity="1" fill-rule="evenodd"/><path fill="#000000" d="M 40.648438 72.808594 C 40.453125 70.796875 41.929688 69.003906 43.949219 68.808594 C 45.96875 68.613281 47.765625 70.085938 47.960938 72.101562 C 48.144531 73.960938 48.242188 76.222656 48.925781 77.996094 C 49.652344 79.882812 48.707031 82.003906 46.8125 82.730469 C 44.921875 83.457031 42.792969 82.511719 42.066406 80.621094 C 41.160156 78.265625 40.890625 75.285156 40.648438 72.808594 Z M 40.648438 72.808594 " fill-opacity="1" fill-rule="evenodd"/><path fill="#000000" d="M 71.46875 68.015625 C 71.285156 66.003906 72.777344 64.21875 74.800781 64.035156 C 76.816406 63.851562 78.605469 65.339844 78.785156 67.351562 C 78.988281 69.527344 79.265625 71.773438 79.839844 73.882812 C 80.375 75.835938 79.21875 77.851562 77.261719 78.382812 C 75.304688 78.914062 73.285156 77.761719 72.753906 75.808594 C 72.0625 73.289062 71.707031 70.613281 71.46875 68.015625 Z M 71.46875 68.015625 " fill-opacity="1" fill-rule="evenodd"/><path fill="#000000" d="M 38.769531 101.214844 C 40.554688 100.253906 42.785156 100.921875 43.75 102.699219 C 44.710938 104.480469 44.042969 106.703125 42.257812 107.664062 C 30.050781 114.238281 16.050781 120.472656 10.597656 134.226562 C 8.457031 139.617188 7.496094 146.667969 8.804688 152.8125 C 9.984375 158.304688 13.070312 163.078125 19.222656 164.644531 C 21.605469 165.25 24.21875 164.671875 26.714844 163.734375 C 29.652344 162.625 32.4375 160.949219 34.652344 159.433594 C 38.660156 156.691406 42.351562 153.003906 46.21875 149.605469 C 50.554688 145.785156 55.109375 142.328125 60.332031 140.476562 C 67.28125 138.011719 75.082031 138.277344 82.257812 137.320312 C 88.09375 136.542969 93.496094 134.859375 97.09375 128.660156 C 98.105469 126.910156 100.359375 126.308594 102.113281 127.324219 C 103.867188 128.335938 104.46875 130.578125 103.453125 132.328125 C 98.503906 140.863281 91.257812 143.515625 83.230469 144.585938 C 76.546875 145.472656 69.261719 145.085938 62.796875 147.382812 C 58.4375 148.929688 54.699219 151.914062 51.078125 155.097656 C 46.984375 158.699219 43.050781 162.574219 38.804688 165.476562 C 33.1875 169.320312 24.527344 173.558594 17.40625 171.746094 C 8.238281 169.410156 3.375 162.53125 1.621094 154.339844 C 0.0078125 146.800781 1.136719 138.144531 3.761719 131.527344 C 9.875 116.117188 25.089844 108.582031 38.769531 101.214844 Z M 38.769531 101.214844 " fill-opacity="1" fill-rule="evenodd"/><path fill="#000000" d="M 109.304688 101.234375 C 107.503906 100.304688 106.800781 98.089844 107.730469 96.296875 C 108.664062 94.5 110.882812 93.796875 112.683594 94.726562 C 136.753906 107.15625 139.503906 142.199219 118.613281 159.132812 C 100.847656 173.527344 77.675781 175.636719 56.167969 170.136719 C 51.984375 169.066406 47.453125 168.238281 43.542969 166.332031 C 41.71875 165.441406 40.964844 163.246094 41.851562 161.429688 C 42.742188 159.613281 44.941406 158.859375 46.765625 159.746094 C 50.238281 161.4375 54.28125 162.085938 57.992188 163.035156 C 77.257812 167.964844 98.066406 166.339844 113.980469 153.445312 C 130.910156 139.722656 128.8125 111.308594 109.304688 101.234375 Z M 109.304688 101.234375 " fill-opacity="1" fill-rule="evenodd"/><path fill="#000000" d="M 27.324219 206.324219 C 27.910156 200.660156 26.496094 194.664062 25.988281 189.050781 C 25.453125 183.1875 25.507812 177.28125 25.03125 171.410156 C 24.867188 169.394531 26.375 167.625 28.394531 167.464844 C 30.414062 167.300781 32.191406 168.804688 32.355469 170.820312 C 32.828125 176.667969 32.777344 182.550781 33.308594 188.390625 C 33.859375 194.5 35.285156 201.03125 34.625 207.1875 C 34.417969 209.128906 32.972656 211.292969 31.238281 213.386719 C 30.769531 213.953125 30.296875 214.523438 29.898438 215.113281 C 29.769531 215.304688 29.652344 215.5 29.550781 215.699219 C 29.480469 215.835938 29.320312 215.957031 29.414062 216.105469 C 30.164062 217.273438 31.367188 217.519531 32.59375 217.59375 C 33.980469 217.679688 35.441406 217.511719 36.832031 217.363281 C 40.617188 216.964844 45.03125 216.148438 48.992188 214.519531 C 52.492188 213.078125 55.667969 211.023438 57.410156 207.851562 C 58.996094 204.964844 59.003906 200.519531 58.574219 195.738281 C 57.835938 187.457031 55.441406 178.253906 54.335938 172.726562 C 53.9375 170.746094 55.234375 168.8125 57.21875 168.417969 C 59.207031 168.023438 61.144531 169.3125 61.542969 171.296875 C 62.6875 177.007812 65.132812 186.527344 65.898438 195.089844 C 66.46875 201.539062 65.996094 207.480469 63.855469 211.375 C 59.015625 220.167969 46.867188 223.675781 37.605469 224.652344 C 32.28125 225.214844 26.496094 225.125 23.238281 220.074219 C 21.285156 217.046875 21.820312 214.128906 23.597656 211.339844 C 24.386719 210.089844 25.484375 208.867188 26.417969 207.6875 C 26.769531 207.242188 27.257812 206.441406 27.324219 206.324219 Z M 27.324219 206.324219 " fill-opacity="1" fill-rule="evenodd"/><g clip-path="url(#4061069465)"><path fill="#000000" d="M 52.828125 218.972656 C 52.945312 216.953125 54.691406 215.410156 56.710938 215.53125 C 58.738281 215.65625 60.285156 217.390625 60.160156 219.410156 C 60.113281 220.222656 60.128906 220.898438 60.246094 221.457031 C 60.292969 221.65625 60.269531 221.839844 60.394531 221.929688 C 60.757812 222.203125 61.292969 222.121094 61.898438 222.105469 C 63.273438 222.070312 64.886719 221.773438 66.671875 221.40625 C 74.453125 219.816406 85.582031 217.457031 91.375 211.5625 C 94.808594 208.066406 94.488281 203.128906 93.585938 198.101562 C 92.441406 191.722656 90.125 185.144531 89.683594 179.917969 C 89.515625 177.902344 91.019531 176.128906 93.039062 175.960938 C 95.058594 175.792969 96.835938 177.292969 97.007812 179.308594 C 97.523438 185.457031 100.734375 193.519531 101.371094 200.859375 C 101.894531 206.867188 100.820312 212.425781 96.625 216.691406 C 89.894531 223.53125 77.175781 226.738281 68.152344 228.585938 C 65.363281 229.15625 62.882812 229.523438 60.882812 229.414062 C 58.910156 229.304688 57.28125 228.757812 56 227.804688 C 54.015625 226.328125 52.542969 223.714844 52.828125 218.972656 Z M 52.828125 218.972656 " fill-opacity="1" fill-rule="evenodd"/></g><path fill="#000000" d="M 101.550781 210.785156 C 99.550781 211.121094 97.652344 209.769531 97.316406 207.777344 C 96.984375 205.78125 98.335938 203.890625 100.335938 203.558594 C 104.917969 202.792969 109.980469 202.3125 114.136719 200.113281 C 123.292969 195.269531 128.253906 183.363281 128.183594 173.476562 C 128.125 165.304688 124.90625 157.601562 123.429688 149.648438 C 123.0625 147.660156 124.378906 145.746094 126.375 145.378906 C 128.367188 145.011719 130.285156 146.328125 130.65625 148.316406 C 132.207031 156.6875 135.46875 164.820312 135.53125 173.425781 C 135.621094 185.804688 129.046875 200.519531 117.582031 206.589844 C 112.738281 209.152344 106.886719 209.894531 101.550781 210.785156 Z M 101.550781 210.785156 " fill-opacity="1" fill-rule="evenodd"/><path fill="#000000" d="M 106.503906 165.496094 C 105.539062 163.714844 106.207031 161.492188 107.992188 160.53125 C 109.777344 159.574219 112.007812 160.242188 112.96875 162.023438 C 115.28125 166.304688 117.738281 170.484375 119.546875 175.011719 C 120.296875 176.890625 119.375 179.023438 117.492188 179.773438 C 115.609375 180.519531 113.46875 179.601562 112.71875 177.722656 C 111.015625 173.457031 108.679688 169.53125 106.503906 165.496094 Z M 106.503906 165.496094 " fill-opacity="1" fill-rule="evenodd"/><path fill="#000000" d="M 18.035156 140.425781 C 16.007812 140.488281 14.3125 138.898438 14.25 136.878906 C 14.1875 134.855469 15.78125 133.164062 17.808594 133.101562 C 20.355469 133.023438 22.917969 132.660156 25.316406 131.761719 C 28.03125 130.746094 30.515625 129.222656 33.339844 128.445312 C 44.363281 125.414062 59.925781 127.21875 66.996094 137.433594 C 68.148438 139.097656 67.726562 141.378906 66.058594 142.53125 C 64.394531 143.679688 62.101562 143.261719 60.949219 141.597656 C 55.597656 133.867188 43.636719 133.21875 35.292969 135.511719 C 32.683594 136.230469 30.40625 137.683594 27.894531 138.625 C 24.742188 139.804688 21.386719 140.320312 18.035156 140.425781 Z M 18.035156 140.425781 " fill-opacity="1" fill-rule="evenodd"/><path fill="#000000" d="M 55.609375 123.972656 C 57.71875 122.078125 60.015625 120.382812 62.65625 119.289062 C 74.519531 114.375 87.152344 121.527344 93.417969 131.414062 C 94.503906 133.125 93.988281 135.390625 92.277344 136.46875 C 90.5625 137.550781 88.289062 137.039062 87.207031 135.328125 C 82.730469 128.265625 73.953125 122.542969 65.476562 126.054688 C 63.109375 127.039062 61.179688 128.75 59.351562 130.511719 C 59.082031 130.773438 57.167969 132.742188 56.546875 133.085938 C 55.359375 133.746094 54.34375 133.628906 53.734375 133.472656 C 53.199219 133.339844 52.398438 133.023438 51.683594 132.148438 C 51.304688 131.683594 50.316406 129.464844 50.105469 128.996094 C 49.40625 127.765625 48.492188 126.667969 47.25 125.96875 C 45.515625 124.988281 43.351562 124.800781 41.410156 124.628906 C 37.191406 124.257812 32.507812 124.394531 29.652344 127.875 C 28.394531 129.402344 28.191406 131.398438 27.863281 133.292969 C 27.527344 135.285156 25.625 136.628906 23.628906 136.289062 C 21.625 135.949219 20.28125 134.054688 20.621094 132.058594 C 21.15625 128.929688 21.890625 125.757812 23.964844 123.234375 C 28.421875 117.804688 35.476562 116.75 42.054688 117.328125 C 45.011719 117.589844 48.234375 118.101562 50.871094 119.589844 C 52.789062 120.675781 54.363281 122.195312 55.609375 123.972656 Z M 55.609375 123.972656 " fill-opacity="1" fill-rule="evenodd"/><path fill="#000000" d="M 64.878906 104.847656 C 62.886719 105.210938 60.96875 103.890625 60.605469 101.902344 C 60.242188 99.914062 61.566406 98.003906 63.5625 97.640625 C 65.472656 97.292969 67.410156 97.03125 69.339844 96.878906 C 71.363281 96.714844 73.136719 98.21875 73.300781 100.234375 C 73.464844 102.25 71.957031 104.019531 69.933594 104.183594 C 68.242188 104.316406 66.550781 104.546875 64.878906 104.847656 Z M 64.878906 104.847656 " fill-opacity="1" fill-rule="evenodd"/><path fill="#ffffff" d="M 40.695312 108.5 C 47.179688 112.1875 54.65625 114.304688 62.46875 115.003906 C 79.265625 116.511719 97.542969 111.410156 110.289062 101.765625 C 128.878906 112.273438 130.617188 139.957031 113.980469 153.445312 C 98.066406 166.339844 77.257812 167.964844 57.992188 163.035156 C 54.28125 162.085938 50.238281 161.4375 46.765625 159.746094 C 46.570312 159.648438 46.367188 159.574219 46.164062 159.515625 C 47.796875 158.054688 49.425781 156.554688 51.078125 155.097656 C 54.699219 151.914062 58.4375 148.929688 62.796875 147.382812 C 69.261719 145.085938 76.546875 145.472656 83.230469 144.585938 C 91.257812 143.515625 98.503906 140.863281 103.453125 132.328125 C 104.46875 130.578125 103.867188 128.335938 102.113281 127.324219 C 100.359375 126.308594 98.105469 126.910156 97.09375 128.660156 C 96.148438 130.285156 95.082031 131.597656 93.917969 132.667969 C 93.832031 132.234375 93.667969 131.808594 93.417969 131.414062 C 87.152344 121.527344 74.519531 114.375 62.65625 119.289062 C 60.015625 120.382812 57.71875 122.078125 55.609375 123.972656 C 54.363281 122.195312 52.789062 120.675781 50.871094 119.589844 C 48.234375 118.101562 45.011719 117.589844 42.054688 117.328125 C 35.476562 116.75 28.421875 117.804688 23.964844 123.234375 C 21.890625 125.757812 21.15625 128.929688 20.621094 132.058594 C 20.578125 132.339844 20.558594 132.617188 20.578125 132.890625 C 19.65625 133.007812 18.730469 133.074219 17.808594 133.101562 C 15.78125 133.164062 14.1875 134.855469 14.25 136.878906 C 14.3125 138.898438 16.007812 140.488281 18.035156 140.425781 C 21.386719 140.320312 24.742188 139.804688 27.894531 138.625 C 30.40625 137.683594 32.683594 136.230469 35.292969 135.511719 C 43.242188 133.324219 54.46875 133.8125 60.144531 140.546875 C 55 142.414062 50.503906 145.832031 46.21875 149.605469 C 42.351562 153.003906 38.660156 156.691406 34.652344 159.433594 C 32.4375 160.949219 29.652344 162.625 26.714844 163.734375 C 24.21875 164.671875 21.605469 165.25 19.222656 164.644531 C 13.070312 163.078125 9.984375 158.304688 8.804688 152.8125 C 7.496094 146.667969 8.457031 139.617188 10.597656 134.226562 C 15.820312 121.054688 28.878906 114.78125 40.695312 108.5 Z M 67.566406 138.765625 C 67.472656 138.300781 67.28125 137.847656 66.996094 137.433594 C 64.980469 134.523438 62.28125 132.300781 59.191406 130.671875 C 59.265625 130.597656 59.320312 130.542969 59.351562 130.511719 C 61.179688 128.75 63.109375 127.039062 65.476562 126.054688 C 73.953125 122.542969 82.730469 128.265625 87.207031 135.328125 C 87.394531 135.628906 87.625 135.890625 87.875 136.117188 C 86.082031 136.707031 84.195312 137.0625 82.257812 137.320312 C 77.492188 137.953125 72.453125 138.050781 67.566406 138.765625 Z M 41.507812 163.484375 C 41.652344 164.671875 42.382812 165.765625 43.542969 166.332031 C 47.085938 168.058594 51.140625 168.898438 54.980469 169.839844 C 54.386719 170.640625 54.125 171.675781 54.335938 172.726562 C 55.441406 178.253906 57.835938 187.457031 58.574219 195.738281 C 59.003906 200.519531 58.996094 204.964844 57.410156 207.851562 C 55.667969 211.023438 52.492188 213.078125 48.992188 214.519531 C 45.03125 216.148438 40.617188 216.964844 36.832031 217.363281 C 35.441406 217.511719 33.980469 217.679688 32.59375 217.59375 C 31.367188 217.519531 30.164062 217.273438 29.414062 216.105469 C 29.320312 215.957031 29.480469 215.835938 29.550781 215.699219 C 29.652344 215.5 29.769531 215.304688 29.898438 215.113281 C 30.296875 214.523438 30.769531 213.953125 31.238281 213.386719 C 32.972656 211.292969 34.417969 209.128906 34.625 207.1875 C 35.285156 201.03125 33.859375 194.5 33.308594 188.390625 C 32.777344 182.550781 32.828125 176.667969 32.355469 170.820312 C 32.3125 170.308594 32.167969 169.828125 31.9375 169.402344 C 34.472656 168.234375 36.828125 166.832031 38.804688 165.476562 C 39.722656 164.855469 40.617188 164.183594 41.507812 163.484375 Z M 124.253906 153.449219 C 125.855469 160.078125 128.136719 166.613281 128.183594 173.476562 C 128.253906 183.363281 123.292969 195.269531 114.136719 200.113281 C 110.328125 202.132812 105.753906 202.703125 101.492188 203.371094 C 101.484375 202.542969 101.445312 201.707031 101.371094 200.859375 C 100.734375 193.519531 97.523438 185.457031 97.007812 179.308594 C 96.835938 177.292969 95.058594 175.792969 93.039062 175.960938 C 91.019531 176.128906 89.515625 177.902344 89.683594 179.917969 C 90.125 185.144531 92.441406 191.722656 93.585938 198.101562 C 94.488281 203.128906 94.808594 208.066406 91.375 211.5625 C 85.582031 217.457031 74.453125 219.816406 66.671875 221.40625 C 64.886719 221.773438 63.273438 222.070312 61.898438 222.105469 C 61.292969 222.121094 60.757812 222.203125 60.394531 221.929688 C 60.269531 221.839844 60.292969 221.65625 60.246094 221.457031 C 60.128906 220.898438 60.113281 220.222656 60.160156 219.410156 C 60.222656 218.421875 59.878906 217.5 59.277344 216.804688 C 61.128906 215.269531 62.699219 213.472656 63.855469 211.375 C 65.996094 207.480469 66.46875 201.539062 65.898438 195.089844 C 65.132812 186.554688 62.699219 177.0625 61.550781 171.34375 C 77.015625 174.339844 93.03125 173.28125 107.042969 166.488281 C 109.058594 170.179688 111.15625 173.808594 112.71875 177.722656 C 113.46875 179.601562 115.609375 180.519531 117.492188 179.773438 C 119.375 179.023438 120.296875 176.890625 119.546875 175.011719 C 117.859375 170.789062 115.609375 166.867188 113.4375 162.886719 C 115.207031 161.742188 116.933594 160.492188 118.613281 159.132812 C 120.734375 157.410156 122.617188 155.503906 124.253906 153.449219 Z M 28.417969 130.417969 C 28.664062 129.503906 29.03125 128.632812 29.652344 127.875 C 32.507812 124.394531 37.191406 124.257812 41.410156 124.628906 C 43.351562 124.800781 45.515625 124.988281 47.25 125.96875 C 47.957031 126.367188 48.5625 126.898438 49.082031 127.507812 C 43.683594 126.730469 38.089844 127.140625 33.339844 128.445312 C 31.617188 128.921875 30.019531 129.671875 28.417969 130.417969 Z M 59.378906 11.203125 C 62.710938 9.851562 66.109375 9.109375 69.511719 8.914062 C 82.839844 8.148438 96.105469 15.582031 105.929688 26.5625 C 122.347656 44.902344 129.433594 73.539062 109.941406 92.433594 C 100.578125 101.507812 86.058594 107.097656 71.699219 107.851562 C 57.621094 108.59375 43.605469 104.695312 34.953125 94.386719 C 27.785156 85.847656 26.667969 72.332031 26.089844 61.644531 C 25.675781 53.945312 26.1875 46.050781 29.679688 39.054688 C 35.398438 27.59375 46.765625 20.125 57.554688 13.972656 C 58.609375 13.371094 59.25 12.324219 59.378906 11.203125 Z M 40.648438 72.808594 C 40.890625 75.285156 41.160156 78.265625 42.066406 80.621094 C 42.792969 82.511719 44.921875 83.457031 46.8125 82.730469 C 48.707031 82.003906 49.652344 79.882812 48.925781 77.996094 C 48.242188 76.222656 48.144531 73.960938 47.960938 72.101562 C 47.765625 70.085938 45.96875 68.613281 43.949219 68.808594 C 41.929688 69.003906 40.453125 70.796875 40.648438 72.808594 Z M 71.46875 68.015625 C 71.707031 70.613281 72.0625 73.289062 72.753906 75.808594 C 73.285156 77.761719 75.304688 78.914062 77.261719 78.382812 C 79.21875 77.851562 80.375 75.835938 79.839844 73.882812 C 79.265625 71.773438 78.988281 69.527344 78.785156 67.351562 C 78.605469 65.339844 76.816406 63.851562 74.800781 64.035156 C 72.777344 64.21875 71.285156 66.003906 71.46875 68.015625 Z M 64.878906 104.847656 C 66.550781 104.546875 68.242188 104.316406 69.933594 104.183594 C 71.957031 104.019531 73.464844 102.25 73.300781 100.234375 C 73.136719 98.21875 71.363281 96.714844 69.339844 96.878906 C 67.410156 97.03125 65.472656 97.292969 63.5625 97.640625 C 61.566406 98.003906 60.242188 99.914062 60.605469 101.902344 C 60.96875 103.890625 62.886719 105.210938 64.878906 104.847656 Z M 64.878906 104.847656 " fill-opacity="1" fill-rule="evenodd"/><g clip-path="url(#73b6330de5)"><g clip-path="url(#9d8e302863)"><path fill="#000000" d="M 47.074219 123.257812 L 61.546875 123.257812 L 61.546875 138.015625 L 47.074219 138.015625 Z M 47.074219 123.257812 " fill-opacity="1" fill-rule="nonzero"/></g></g></svg>